<?xml version="1.0" encoding="utf-8"?>
<!-- Generator: Adobe Illustrator 24.1.0, SVG Export Plug-In . SVG Version: 6.00 Build 0)  -->
<svg version="1.1" id="Logo" xmlns="http://www.w3.org/2000/svg" xmlns:xlink="http://www.w3.org/1999/xlink" x="0px" y="0px"
	 viewBox="0 0 372.24 239.76" style="enable-background:new 0 0 372.24 239.76;" xml:space="preserve">
<style type="text/css">
	.st0{fill:#152C73;}
	.st1{fill:#FFFFFF;}
</style>
<g>
	<path class="st0" d="M56.84,176.81l-7.43-0.01l0.01-2.8l18.08,0.03l-0.01,2.8l-7.39-0.01l-0.04,20.95l-3.26-0.01L56.84,176.81z
		 M68.53,192.29l0.02-11.32l3.03,0.01l-0.02,10.36c-0.01,2.83,1.32,4.16,3.49,4.17c2.43,0,4.3-1.72,4.31-4.79l0.02-9.72l3,0.01
		l-0.03,16.82l-2.9-0.01l0-2.63l-0.07,0c-1.17,2-3.17,2.99-5.27,2.99C70.46,198.15,68.53,195.75,68.53,192.29z M87.07,181L90,181
		L90,184.17l0.07,0c1.24-2.36,3.74-3.46,5.87-3.45c0.43,0,0.9,0.03,1.26,0.1l0,2.8c-0.53-0.1-1.03-0.1-1.53-0.1
		c-3.13-0.01-5.53,1.85-5.57,5.32l-0.02,8.99l-3.03-0.01L87.07,181z M100.09,181.02l2.9,0.01l0,2.63l0.07,0
		c1.17-2,3.17-2.99,5.3-2.99c3.63,0.01,5.56,2.38,5.55,5.84l-0.02,11.36l-3.03-0.01l0.02-10.39c0-2.83-1.29-4.16-3.46-4.17
		c-2.43,0-4.33,1.72-4.34,4.79l-0.02,9.76l-3-0.01L100.09,181.02z M126.48,194.23l0.02-10.72l-2.7-0.01l0-2.43l2.7,0.01l0.01-5.19
		l3,0.01l-0.01,5.19l4.33,0.01l0,2.43l-4.33-0.01l-0.02,9.96c0,1.53,0.8,2,2.09,2c0.87,0,1.53-0.1,2.33-0.26l0,2.6
		c-1,0.3-2.4,0.4-3.06,0.39C128.5,198.19,126.47,197.12,126.48,194.23z M136.17,191.78l0.01-4.16c0.01-4.5,3.44-6.85,7.21-6.85
		c4.13,0.01,7.29,2.54,7.28,6.81l-0.01,3.9c-0.01,4.46-3.41,6.89-7.21,6.88C139.36,198.35,136.16,196.08,136.17,191.78z
		 M147.59,191.67l0.01-4.36c0-2.36-1.52-3.97-4.22-3.97c-2.4,0-4.17,1.36-4.17,4.09l-0.01,4.33c0,2.43,1.59,4.03,4.26,4.04
		C145.89,195.79,147.59,194.5,147.59,191.67z M162.61,194.29l0.02-10.72l-2.7-0.01l0-2.43l2.7,0.01l0.01-5.19l3,0.01l-0.01,5.19
		l4.33,0.01l0,2.43l-4.33-0.01l-0.02,9.96c0,1.53,0.8,2,2.09,2c0.87,0,1.53-0.1,2.33-0.26l0,2.6c-1,0.3-2.4,0.4-3.06,0.39
		C164.63,198.26,162.6,197.19,162.61,194.29z M173.14,174.2l3,0.01l-0.02,9.59l0.1,0c1.14-2,3.14-2.99,5.17-2.99
		c3.63,0.01,5.56,2.37,5.55,5.84L186.91,198l-3.03-0.01l0.02-10.39c0-2.83-1.29-4.16-3.46-4.17c-2.43,0-4.33,1.72-4.34,4.79
		l-0.02,9.76l-3-0.01L173.14,174.2z M190.65,191.58l0.01-3.46c0.01-4.66,3.31-7.25,7.41-7.25c3.7,0.01,6.86,2.21,6.85,6.61
		l-0.01,2.86l-11.12-0.02l0,1.47c0,2.53,1.82,4.1,4.49,4.1c1.76,0,3.17-0.96,4.07-2.16l2.3,1.37c-1.44,2.43-3.94,3.36-6.53,3.35
		C193.97,198.45,190.65,196.21,190.65,191.58z M201.92,188.24l0-0.8c0-2.46-1.52-4.03-3.96-4.04c-2.36,0-4.17,1.62-4.17,4.25l0,0.57
		L201.92,188.24z M215.13,191.63l0.01-3.46c0.01-4.66,3.31-7.25,7.41-7.25c3.7,0.01,6.86,2.21,6.85,6.61l0,2.86l-11.12-0.02l0,1.47
		c0,2.53,1.82,4.1,4.49,4.1c1.76,0,3.17-0.96,4.07-2.16l2.3,1.37c-1.44,2.43-3.94,3.36-6.53,3.35
		C218.45,198.49,215.12,196.26,215.13,191.63z M226.39,188.29l0-0.8c0-2.46-1.52-4.03-3.95-4.04c-2.36,0-4.17,1.62-4.17,4.25l0,0.57
		L226.39,188.29z M237.01,189.34l-5.45-8.07l3.5,0.01l3.72,5.73l3.74-5.72l3.46,0.01l-5.51,8.02l5.91,8.8l-3.46-0.01l-4.18-6.37
		l-4.21,6.35l-3.46-0.01L237.01,189.34z M249.28,181.3l2.9,0.01l0,2.46h0.07c1.24-2,3.4-2.82,5.1-2.82
		c3.63,0.01,6.29,2.28,6.28,6.21l-0.01,4.8c-0.01,4.53-3.14,6.62-6.61,6.61c-2.03,0-3.89-1.14-4.66-2.77l-0.1,0l-0.02,8.79l-3-0.01
		L249.28,181.3z M260.55,192.15l0.01-4.93c0-2.16-1.62-3.67-4.06-3.67c-2,0-4.23,1.52-4.24,4.49l-0.01,3.7
		c0,2.63,1.96,4.27,4.29,4.27C258.48,196.01,260.55,194.88,260.55,192.15z M266.75,191.72l0.01-3.46c0.01-4.66,3.31-7.25,7.41-7.25
		c3.7,0.01,6.86,2.21,6.85,6.61l-0.01,2.86l-11.12-0.02l0,1.47c0,2.53,1.82,4.1,4.49,4.1c1.76,0,3.17-0.96,4.07-2.16l2.3,1.37
		c-1.44,2.43-3.94,3.36-6.53,3.35C270.07,198.59,266.74,196.35,266.75,191.72z M278.01,188.38l0-0.8c0-2.46-1.52-4.03-3.96-4.04
		c-2.36,0-4.17,1.62-4.17,4.25l0,0.57L278.01,188.38z M284.75,181.37l2.93,0.01l-0.01,3.16h0.07c1.24-2.36,3.74-3.46,5.87-3.45
		c0.43,0,0.9,0.03,1.26,0.1l0,2.8c-0.53-0.1-1.03-0.1-1.53-0.1c-3.13-0.01-5.53,1.85-5.57,5.32l-0.02,8.99l-3.03-0.01L284.75,181.37
		z M299.31,194.55l0.02-10.72l-2.7-0.01l0-2.43l2.7,0.01l0.01-5.19l3,0.01l-0.01,5.19l4.33,0.01l0,2.43l-4.33-0.01l-0.02,9.96
		c0,1.53,0.8,2,2.09,2c0.87,0,1.53-0.1,2.33-0.26l0,2.6c-1,0.3-2.4,0.39-3.06,0.39C301.34,198.52,299.31,197.45,299.31,194.55z
		 M308.6,195.73l2.1-1.63c1.23,1.37,2.86,2.1,4.92,2.11c1.9,0,3.83-0.86,3.83-2.69c0-1.66-1.06-2.13-3.36-2.57l-2.03-0.4
		c-2.86-0.54-4.69-1.87-4.69-4.34c0.01-3.13,2.64-5.19,6.27-5.18c2.7,0.01,4.76,0.68,6.12,2.34l-2.13,1.53
		c-1.03-1-2.26-1.54-4.09-1.54c-1.9,0-3.2,0.93-3.2,2.43c0,1.47,1.39,1.87,3.49,2.3l2.5,0.54c2.63,0.54,4.26,1.97,4.25,4.47
		c-0.01,3.73-3.61,5.55-6.9,5.55C312.82,198.64,310.23,197.87,308.6,195.73z"/>
	<g id="XMLID_145_">
		<ellipse id="XMLID_160_" class="st0" cx="186" cy="99.68" rx="144" ry="57.56"/>
		<path id="XMLID_146_" class="st1" d="M186,48.64c-77.04,0-139.49,22.93-139.49,51.04s62.45,51.04,139.49,51.04
			s139.49-22.93,139.49-51.04S263.04,48.64,186,48.64z M186,147.36c-75.98,0-137.57-21.49-137.57-47.68S110.02,52,186,52
			s137.57,21.49,137.57,47.68S261.99,147.36,186,147.36z M153.96,107.07c-1.15,1.82-3.74,4.99-5.56,4.99
			c-0.48,0-0.77-0.29-0.77-0.86c0-0.77,0.29-1.73,0.29-1.73l7.77-22.07h-6.52l-0.86,2.4c-1.15-1.82-2.69-2.49-4.6-2.49
			c-7.58,0-19.95,10.84-19.95,21.97c0,4.8,2.88,7.58,6.81,7.58c3.93,0,7.48-3.26,10.07-7.2h0.19c-0.1,0.67-0.29,1.73-0.29,2.69
			c0,2.4,1.25,4.22,3.65,4.22c5.37,0,10.07-7.1,11.61-9.5H153.96z M146.29,95.27c0,0-2.11,5.08-4.22,9.11
			c-1.73,3.26-5.56,8.15-8.35,8.15c-2.01,0-3.07-1.44-3.07-3.84c0-8.15,8.73-19.47,13.62-19.47c1.63,0,2.59,1.44,2.59,3.26
			C146.86,93.35,146.67,94.21,146.29,95.27z M244.14,113.5c-3.65,0-5.28-2.69-5.28-5.66c0-1.06,0.1-2.59,0.29-3.45
			c14.01-0.48,20.24-5.47,20.24-10.84c0-3.93-3.26-6.62-8.35-6.62c-11.51,0-19.38,10.94-19.38,20.05c0,6.52,3.93,9.88,10.46,9.88
			c6.24,0,12.38-4.99,15.06-9.11h-1.63C253.16,110.14,249.13,113.5,244.14,113.5z M250.28,88.74c2.21,0,3.07,1.63,3.07,3.55
			c0,2.97-3.74,9.88-13.72,10.07C240.59,96.52,245.2,88.74,250.28,88.74z M165.95,115.99h-6.43c0,0,5.37-15.25,7-20.63
			c0.29-0.96,0.48-2.01,0.48-2.49c0-0.38-0.19-0.77-0.67-0.77c-0.67,0-2.3,0.77-5.28,4.99h-1.73c3.55-5.85,7.96-9.79,11.03-9.79
			c2.01,0,2.88,1.15,2.88,2.97c0,1.25-0.58,3.65-1.92,8.44c5.76-10.46,9.4-11.9,11.7-11.8c2.4,0,3.74,1.63,3.74,3.65
			c0,2.11-1.63,4.6-4.13,4.6c-1.63,0-2.78-1.25-2.78-3.36c0-0.19,0-0.48,0-0.67c-1.63,0.86-5.85,4.6-10.94,16.98L165.95,115.99z
			 M122.88,77.9c-0.96-0.29-2.3-0.48-3.65-0.48c-12.86,0-23.98,12.38-23.98,24.94c0,9.21,5.66,11.61,10.27,11.61
			c5.37,0,9.21-2.11,12.76-5.28h1.92c-2.69,3.74-8.44,8.44-16.79,8.44c-11.42,0-15.83-6.91-15.83-14.87
			c0-14.77,15.73-27.25,32.23-27.25c6.43,0,10.07,2.3,10.07,5.56c0,2.11-1.53,3.93-4.13,3.93c-2.11,0-3.74-1.25-3.74-3.55
			C122.01,80.21,122.4,78.86,122.88,77.9z M221.21,87.4h6.43l-7.67,21.59c-0.1,0.29-0.48,1.44-0.48,2.4c0,0.67,0.29,0.96,0.77,0.96
			c1.73,0,4.7-2.78,6.52-5.28h1.73c-2.88,4.8-7.96,9.79-12.57,9.79c-2.21,0-3.65-1.34-3.65-3.45c0-1.25,0.38-3.26,1.53-6.33
			L221.21,87.4z M230.52,79.05c0,2.78-2.3,5.47-4.99,5.47c-1.53,0-2.69-0.96-2.69-2.97c0-2.78,2.3-5.47,4.99-5.47
			C229.37,76.08,230.52,77.04,230.52,79.05z M194.06,115.99h-6.43c0,0,5.37-15.25,7-20.63c0.29-0.96,0.48-2.01,0.48-2.49
			c0-0.38-0.19-0.77-0.67-0.77c-0.67,0-2.3,0.77-5.28,4.99h-1.73c3.55-5.85,7.96-9.79,11.03-9.79c2.01,0,2.88,1.15,2.88,2.97
			c0,1.25-0.58,3.65-1.92,8.44c5.76-10.46,9.4-11.9,11.7-11.8c2.4,0,3.74,1.63,3.74,3.65c0,2.11-1.63,4.6-4.13,4.6
			c-1.63,0-2.78-1.25-2.78-3.36c0-0.19,0-0.48,0-0.67c-1.63,0.86-5.85,4.6-10.94,16.98L194.06,115.99z M269.37,115.99h-6.43
			c0,0,5.37-15.25,7-20.63c0.29-0.96,0.48-2.01,0.48-2.49c0-0.38-0.19-0.77-0.67-0.77c-0.67,0-2.3,0.77-5.28,4.99h-1.73
			c3.55-5.85,7.96-9.79,11.03-9.79c2.01,0,2.88,1.15,2.88,2.97c0,1.25-0.58,3.65-1.92,8.44c5.76-10.46,9.4-11.9,11.7-11.8
			c2.4,0,3.74,1.63,3.74,3.65c0,2.11-1.63,4.6-4.13,4.6c-1.63,0-2.78-1.25-2.78-3.36c0-0.19,0-0.48,0-0.67
			c-1.63,0.86-5.85,4.6-10.94,16.98L269.37,115.99z"/>
	</g>
</g>
</svg>
